<?xml version="1.0" encoding="utf-8"?>
<svg viewBox="0 0 500 500" xmlns="http://www.w3.org/2000/svg" xmlns:bx="https://boxy-svg.com">
  <defs>
    <linearGradient gradientUnits="userSpaceOnUse" x1="251.819" y1="54.253" x2="251.819" y2="244.253" id="gradient-0" gradientTransform="matrix(1, 0, 0, 1, -5.802553, -13.539289)">
      <stop offset="0" style="stop-color: rgba(12, 136, 238, 1)"/>
      <stop offset="1" style="stop-color: rgba(7, 81, 141, 1)"/>
    </linearGradient>
    <radialGradient gradientUnits="userSpaceOnUse" cx="246.016" cy="135.714" r="94" id="gradient-4" gradientTransform="matrix(1, 0, 0, 1, 0, 0)">
      <stop offset="0" style="stop-color: rgba(85, 151, 218, 1)"/>
      <stop offset="1" style="stop-color: rgba(36, 100, 165, 1)"/>
    </radialGradient>
    <linearGradient gradientUnits="userSpaceOnUse" x1="210.205" y1="202" x2="210.205" y2="242" id="gradient-2">
      <stop offset="0" style="stop-color: rgba(85, 151, 218, 1)"/>
      <stop offset="1" style="stop-color: rgba(36, 100, 165, 1)"/>
    </linearGradient>
    <linearGradient gradientUnits="userSpaceOnUse" x1="277.336" y1="202" x2="277.336" y2="242" id="gradient-1" spreadMethod="pad">
      <stop offset="0" style="stop-color: rgba(85, 151, 218, 1)"/>
      <stop offset="1" style="stop-color: rgba(36, 100, 165, 1)"/>
    </linearGradient>
  </defs>
  <rect x="229.086" y="312.827" width="86" height="12.238" style="stroke: rgb(222, 218, 218); fill: rgb(154, 151, 151);" transform="matrix(0, -1, 1, 0, -42.207851, 535.085999)" bx:origin="0.5 0.500048"/>
  <rect x="229.086" y="312.827" width="86" height="12.238" style="stroke: rgb(222, 218, 218); fill: rgb(154, 151, 151);" transform="matrix(0, -1, 1, 0, -108.614853, 535.085999)" bx:origin="0.5 0.500048"/>
  <path d="M 340.516 135.714 C 340.516 161.845 329.967 185.407 312.838 202.536 C 295.709 219.665 272.147 230.214 246.016 230.214 C 219.885 230.214 196.323 219.665 179.194 202.536 C 162.065 185.407 151.516 161.845 151.516 135.714 C 151.516 109.583 162.065 86.021 179.194 68.892 C 196.323 51.763 219.885 41.214 246.016 41.214 C 272.147 41.214 295.709 51.763 312.838 68.892 C 329.967 86.021 340.516 109.583 340.516 135.714 Z M 312.13 69.6 C 295.127 52.597 271.943 42.214 246.016 42.214 C 220.089 42.214 196.905 52.597 179.902 69.6 C 162.899 86.603 152.516 109.787 152.516 135.714 C 152.516 161.641 162.899 184.825 179.902 201.828 C 196.905 218.831 220.089 229.214 246.016 229.214 C 271.943 229.214 295.127 218.831 312.13 201.828 C 329.133 184.825 339.516 161.641 339.516 135.714 C 339.516 109.787 329.133 86.603 312.13 69.6 Z" style="fill: none;"/>
  <path d="M 340.516 135.714 C 340.516 161.845 329.967 185.407 312.838 202.536 C 295.709 219.665 272.147 230.214 246.016 230.214 C 219.885 230.214 196.323 219.665 179.194 202.536 C 162.065 185.407 151.516 161.845 151.516 135.714 C 151.516 109.583 162.065 86.021 179.194 68.892 C 196.323 51.763 219.885 41.214 246.016 41.214 C 272.147 41.214 295.709 51.763 312.838 68.892 C 329.967 86.021 340.516 109.583 340.516 135.714 Z M 312.13 69.6 C 295.127 52.597 271.943 42.214 246.016 42.214 C 220.089 42.214 196.905 52.597 179.902 69.6 C 162.899 86.603 152.516 109.787 152.516 135.714 C 152.516 161.641 162.899 184.825 179.902 201.828 C 196.905 218.831 220.089 229.214 246.016 229.214 C 271.943 229.214 295.127 218.831 312.13 201.828 C 329.133 184.825 339.516 161.641 339.516 135.714 C 339.516 109.787 329.133 86.603 312.13 69.6 Z" style="fill: url(#gradient-0);"/>
  <path d="M 222.705 221.999 C 222.705 227.538 221.307 232.502 219.044 236.142 C 216.769 239.763 213.666 242 210.205 242 C 206.744 242 203.636 239.773 201.366 236.142 C 199.097 232.511 197.705 227.538 197.705 222 C 197.705 216.462 199.097 211.489 201.366 207.858 C 203.636 204.227 206.744 202 210.205 202 C 213.666 202 216.775 204.227 219.044 207.858 C 220.179 209.673 221.092 211.825 221.726 214.213 C 222.041 215.408 222.286 216.663 222.452 217.964 C 222.535 218.615 222.599 219.278 222.641 219.951 C 222.662 220.288 222.679 220.627 222.689 220.968 C 222.695 221.139 222.699 221.311 222.701 221.482 C 222.704 221.655 222.705 222 222.705 222" style="fill: url(#gradient-2);"/>
  <path d="M 289.836 221.999 C 289.836 227.538 288.438 232.502 286.175 236.142 C 283.9 239.763 280.797 242 277.336 242 C 273.875 242 270.767 239.773 268.497 236.142 C 266.228 232.511 264.836 227.538 264.836 222 C 264.836 216.462 266.228 211.489 268.497 207.858 C 270.767 204.227 273.875 202 277.336 202 C 280.797 202 283.906 204.227 286.175 207.858 C 287.31 209.673 288.223 211.825 288.857 214.213 C 289.172 215.408 289.417 216.663 289.583 217.964 C 289.666 218.615 289.73 219.278 289.772 219.951 C 289.793 220.288 289.81 220.627 289.82 220.968 C 289.826 221.139 289.83 221.311 289.832 221.482 C 289.835 221.655 289.836 222 289.836 222" style="fill: url(#gradient-1);"/>
  <path d="M 340.016 135.711 C 340.016 161.744 329.501 185.073 312.483 202.183 C 295.372 219.202 272.046 229.714 246.016 229.714 C 219.987 229.714 196.614 219.248 179.548 202.182 C 162.482 185.116 152.016 161.743 152.016 135.714 C 152.016 109.685 162.482 86.312 179.548 69.246 C 196.614 52.18 219.987 41.714 246.016 41.714 C 272.045 41.714 295.418 52.18 312.484 69.246 C 321.017 77.779 327.89 87.892 332.65 99.118 C 335.023 104.735 336.863 110.629 338.114 116.747 C 338.737 119.807 339.213 122.921 339.533 126.084 C 339.693 127.667 339.813 129.26 339.895 130.865 C 339.935 131.669 339.965 132.475 339.986 133.282 C 340.006 134.093 340.016 135.714 340.016 135.714" style="fill: url(#gradient-4); stroke: rgb(85, 151, 218);"/>
</svg>