<?xml version="1.0" encoding="utf-8"?>
<svg viewBox="0 0 500 500" xmlns="http://www.w3.org/2000/svg">
  <ellipse style="fill: rgb(216, 216, 216); stroke: rgb(0, 0, 0);"/>
  <ellipse style="fill: rgb(216, 216, 216); stroke: rgb(0, 0, 0);"/>
  <ellipse style="fill: rgb(216, 216, 216); stroke: rgb(0, 0, 0);"/>
  <ellipse style="fill: rgb(216, 216, 216); stroke: rgb(0, 0, 0);"/>
  <ellipse style="fill: rgb(216, 216, 216); stroke: rgb(112, 66, 66);"/>
  <ellipse style="stroke: rgb(0, 0, 0); fill: rgb(84, 59, 59);"/>
  <ellipse style="fill: rgb(216, 216, 216); stroke: rgb(0, 0, 0);"/>
  <ellipse style="fill: rgb(216, 216, 216); stroke: rgb(0, 0, 0);"/>
  <ellipse style="fill: rgb(216, 216, 216); stroke: rgb(0, 0, 0);"/>
  <ellipse style="fill: rgb(216, 216, 216); stroke: rgb(0, 0, 0);"/>
  <g transform="matrix(1.265427, 0.339069, -0.248758, 0.92837, 55.066681, 7.976963)">
    <g>
      <rect x="91" y="128.747" width="19.027" height="91.611" style="fill: rgb(225, 136, 47); stroke: rgb(225, 136, 47);"/>
      <ellipse style="fill: rgb(225, 136, 47); stroke: rgb(225, 136, 47);" cx="100.5" cy="127.066" rx="9.5" ry="14.861"/>
      <ellipse style="fill: rgb(225, 136, 47); stroke: rgb(225, 136, 47);" cx="100.583" cy="219.077" rx="9.5" ry="14.861"/>
    </g>
  </g>
  <g transform="matrix(1.265427, 0.339069, -0.248758, 0.92837, 85.040092, 7.976963)">
    <g>
      <rect x="91" y="128.747" width="19.027" height="91.611" style="fill: rgb(225, 136, 47); stroke: rgb(225, 136, 47);"/>
      <ellipse style="fill: rgb(225, 136, 47); stroke: rgb(225, 136, 47);" cx="100.5" cy="127.066" rx="9.5" ry="14.861"/>
      <ellipse style="fill: rgb(225, 136, 47); stroke: rgb(225, 136, 47);" cx="100.583" cy="219.077" rx="9.5" ry="14.861"/>
    </g>
  </g>
  <g transform="matrix(1.265427, 0.339069, -0.248758, 0.92837, 115.040092, 7.976963)">
    <g>
      <rect x="91" y="128.747" width="19.027" height="91.611" style="fill: rgb(225, 136, 47); stroke: rgb(225, 136, 47);"/>
      <ellipse style="fill: rgb(225, 136, 47); stroke: rgb(225, 136, 47);" cx="100.5" cy="127.066" rx="9.5" ry="14.861"/>
      <ellipse style="fill: rgb(225, 136, 47); stroke: rgb(225, 136, 47);" cx="100.583" cy="219.077" rx="9.5" ry="14.861"/>
    </g>
  </g>
  <g transform="matrix(1.265427, 0.339069, -0.248758, 0.92837, 145.0401, 7.976963)">
    <g>
      <rect x="91" y="128.747" width="19.027" height="91.611" style="fill: rgb(225, 136, 47); stroke: rgb(225, 136, 47);"/>
      <ellipse style="fill: rgb(225, 136, 47); stroke: rgb(225, 136, 47);" cx="100.5" cy="127.066" rx="9.5" ry="14.861"/>
      <ellipse style="fill: rgb(225, 136, 47); stroke: rgb(225, 136, 47);" cx="100.583" cy="219.077" rx="9.5" ry="14.861"/>
    </g>
  </g>
  <g transform="matrix(1.265427, 0.339069, -0.248758, 0.92837, 175.0401, 7.976963)">
    <g>
      <rect x="91" y="128.747" width="19.027" height="91.611" style="fill: rgb(225, 136, 47); stroke: rgb(225, 136, 47);"/>
      <ellipse style="fill: rgb(225, 136, 47); stroke: rgb(225, 136, 47);" cx="100.5" cy="127.066" rx="9.5" ry="14.861"/>
      <ellipse style="fill: rgb(225, 136, 47); stroke: rgb(225, 136, 47);" cx="100.583" cy="219.077" rx="9.5" ry="14.861"/>
    </g>
  </g>
  <g transform="matrix(1.265427, 0.339069, -0.248758, 0.92837, 205.0401, 7.976963)">
    <g>
      <rect x="91" y="128.747" width="19.027" height="91.611" style="fill: rgb(225, 136, 47); stroke: rgb(225, 136, 47);"/>
      <ellipse style="fill: rgb(225, 136, 47); stroke: rgb(225, 136, 47);" cx="100.5" cy="127.066" rx="9.5" ry="14.861"/>
      <ellipse style="fill: rgb(225, 136, 47); stroke: rgb(225, 136, 47);" cx="100.583" cy="219.077" rx="9.5" ry="14.861"/>
    </g>
  </g>
  <g transform="matrix(1.265427, 0.339069, -0.248758, 0.92837, 235.0401, 9.348053)">
    <g>
      <rect x="91" y="128.747" width="19.027" height="91.611" style="fill: rgb(225, 136, 47); stroke: rgb(225, 136, 47);"/>
      <ellipse style="fill: rgb(225, 136, 47); stroke: rgb(225, 136, 47);" cx="100.5" cy="127.066" rx="9.5" ry="14.861"/>
      <ellipse style="fill: rgb(225, 136, 47); stroke: rgb(225, 136, 47);" cx="100.583" cy="219.077" rx="9.5" ry="14.861"/>
    </g>
  </g>
  <g transform="matrix(1.265427, 0.339069, -0.248758, 0.92837, 265.0401, 9.348053)">
    <g>
      <rect x="91" y="128.747" width="19.027" height="91.611" style="fill: rgb(225, 136, 47); stroke: rgb(225, 136, 47);"/>
      <ellipse style="fill: rgb(225, 136, 47); stroke: rgb(225, 136, 47);" cx="100.5" cy="127.066" rx="9.5" ry="14.861"/>
      <ellipse style="fill: rgb(225, 136, 47); stroke: rgb(225, 136, 47);" cx="100.583" cy="219.077" rx="9.5" ry="14.861"/>
    </g>
  </g>
  <g transform="matrix(1.265427, 0.339069, -0.248758, 0.92837, 295.441223, 9.348053)">
    <g>
      <rect x="91" y="128.747" width="19.027" height="91.611" style="fill: rgb(225, 136, 47); stroke: rgb(225, 136, 47);"/>
      <ellipse style="fill: rgb(225, 136, 47); stroke: rgb(225, 136, 47);" cx="100.5" cy="127.066" rx="9.5" ry="14.861"/>
      <ellipse style="fill: rgb(225, 136, 47); stroke: rgb(225, 136, 47);" cx="100.583" cy="219.077" rx="9.5" ry="14.861"/>
    </g>
  </g>
  <g transform="matrix(1.265427, 0.339069, -0.248758, 0.92837, 85.040092, 7.976963)">
    <g>
      <rect x="91" y="128.747" width="19.027" height="91.611" style="fill: rgb(225, 136, 47); stroke: rgb(225, 136, 47);"/>
      <ellipse style="fill: rgb(225, 136, 47); stroke: rgb(225, 136, 47);" cx="100.5" cy="127.066" rx="9.5" ry="14.861"/>
      <ellipse style="fill: rgb(225, 136, 47); stroke: rgb(225, 136, 47);" cx="100.583" cy="219.077" rx="9.5" ry="14.861"/>
    </g>
  </g>
  <g transform="matrix(0.000001, 1.310066, -0.575029, -0.000001, 206.087769, 65.784225)">
    <g>
      <rect x="91" y="128.747" width="19.027" height="91.611" style="fill: rgb(225, 136, 47); stroke: rgb(225, 136, 47);"/>
      <ellipse style="fill: rgb(225, 136, 47); stroke: rgb(225, 136, 47);" cx="100.5" cy="127.066" rx="9.5" ry="14.861"/>
      <ellipse style="fill: rgb(225, 136, 47); stroke: rgb(225, 136, 47);" cx="100.583" cy="219.077" rx="9.5" ry="14.861"/>
    </g>
  </g>
  <g transform="matrix(0.000001, -1.310066, -0.575029, 0.000001, 514.521057, 329.215881)">
    <g>
      <rect x="91" y="128.747" width="19.027" height="91.611" style="fill: rgb(225, 136, 47); stroke: rgb(225, 136, 47);"/>
      <ellipse style="fill: rgb(225, 136, 47); stroke: rgb(225, 136, 47);" cx="100.5" cy="127.066" rx="9.5" ry="14.861"/>
      <ellipse style="fill: rgb(225, 136, 47); stroke: rgb(225, 136, 47);" cx="100.583" cy="219.077" rx="9.5" ry="14.861"/>
    </g>
  </g>
  <g transform="matrix(0.759256, 0.203442, -0.14883, 0.555435, 88.724693, 83.164192)">
    <g>
      <rect x="91" y="128.747" width="19.027" height="91.611" style="fill: rgb(223, 171, 119); stroke: rgb(223, 171, 119);"/>
      <ellipse style="fill: rgb(223, 171, 119); stroke: rgb(223, 171, 119);" cx="100.5" cy="127.066" rx="9.5" ry="14.861"/>
      <ellipse style="fill: rgb(223, 171, 119); stroke: rgb(223, 171, 119);" cx="100.583" cy="219.077" rx="9.5" ry="14.861"/>
    </g>
  </g>
  <g transform="matrix(0.759256, 0.203442, -0.14883, 0.555435, 118.724693, 83.164192)">
    <g>
      <rect x="91" y="128.747" width="19.027" height="91.611" style="fill: rgb(223, 171, 119); stroke: rgb(223, 171, 119);"/>
      <ellipse style="fill: rgb(223, 171, 119); stroke: rgb(223, 171, 119);" cx="100.5" cy="127.066" rx="9.5" ry="14.861"/>
      <ellipse style="fill: rgb(223, 171, 119); stroke: rgb(223, 171, 119);" cx="100.583" cy="219.077" rx="9.5" ry="14.861"/>
    </g>
  </g>
  <g transform="matrix(0.759256, 0.203442, -0.14883, 0.555435, 148.724701, 83.164192)">
    <g>
      <rect x="91" y="128.747" width="19.027" height="91.611" style="fill: rgb(223, 171, 119); stroke: rgb(223, 171, 119);"/>
      <ellipse style="fill: rgb(223, 171, 119); stroke: rgb(223, 171, 119);" cx="100.5" cy="127.066" rx="9.5" ry="14.861"/>
      <ellipse style="fill: rgb(223, 171, 119); stroke: rgb(223, 171, 119);" cx="100.583" cy="219.077" rx="9.5" ry="14.861"/>
    </g>
  </g>
  <g transform="matrix(0.759256, 0.203442, -0.14883, 0.555435, 178.724701, 83.164192)">
    <g>
      <rect x="91" y="128.747" width="19.027" height="91.611" style="fill: rgb(223, 171, 119); stroke: rgb(223, 171, 119);"/>
      <ellipse style="fill: rgb(223, 171, 119); stroke: rgb(223, 171, 119);" cx="100.5" cy="127.066" rx="9.5" ry="14.861"/>
      <ellipse style="fill: rgb(223, 171, 119); stroke: rgb(223, 171, 119);" cx="100.583" cy="219.077" rx="9.5" ry="14.861"/>
    </g>
  </g>
  <g transform="matrix(0.759256, 0.203442, -0.14883, 0.555435, 208.724701, 83.164192)">
    <g>
      <rect x="91" y="128.747" width="19.027" height="91.611" style="fill: rgb(223, 171, 119); stroke: rgb(223, 171, 119);"/>
      <ellipse style="fill: rgb(223, 171, 119); stroke: rgb(223, 171, 119);" cx="100.5" cy="127.066" rx="9.5" ry="14.861"/>
      <ellipse style="fill: rgb(223, 171, 119); stroke: rgb(223, 171, 119);" cx="100.583" cy="219.077" rx="9.5" ry="14.861"/>
    </g>
  </g>
  <g transform="matrix(0.759256, 0.203442, -0.14883, 0.555435, 238.724701, 83.164192)">
    <g>
      <rect x="91" y="128.747" width="19.027" height="91.611" style="fill: rgb(223, 171, 119); stroke: rgb(223, 171, 119);"/>
      <ellipse style="fill: rgb(223, 171, 119); stroke: rgb(223, 171, 119);" cx="100.5" cy="127.066" rx="9.5" ry="14.861"/>
      <ellipse style="fill: rgb(223, 171, 119); stroke: rgb(223, 171, 119);" cx="100.583" cy="219.077" rx="9.5" ry="14.861"/>
    </g>
  </g>
  <g transform="matrix(0.759256, 0.203442, -0.14883, 0.555435, 268.724701, 83.164192)">
    <g>
      <rect x="91" y="128.747" width="19.027" height="91.611" style="fill: rgb(223, 171, 119); stroke: rgb(223, 171, 119);"/>
      <ellipse style="fill: rgb(223, 171, 119); stroke: rgb(223, 171, 119);" cx="100.5" cy="127.066" rx="9.5" ry="14.861"/>
      <ellipse style="fill: rgb(223, 171, 119); stroke: rgb(223, 171, 119);" cx="100.583" cy="219.077" rx="9.5" ry="14.861"/>
    </g>
  </g>
  <g transform="matrix(0.759256, 0.203442, -0.14883, 0.555435, 298.724701, 83.164192)">
    <g>
      <rect x="91" y="128.747" width="19.027" height="91.611" style="fill: rgb(223, 171, 119); stroke: rgb(223, 171, 119);"/>
      <ellipse style="fill: rgb(223, 171, 119); stroke: rgb(223, 171, 119);" cx="100.5" cy="127.066" rx="9.5" ry="14.861"/>
      <ellipse style="fill: rgb(223, 171, 119); stroke: rgb(223, 171, 119);" cx="100.583" cy="219.077" rx="9.5" ry="14.861"/>
    </g>
  </g>
  <g transform="matrix(0.759256, 0.203442, -0.14883, 0.555435, 328.724701, 83.164192)">
    <g>
      <rect x="91" y="128.747" width="19.027" height="91.611" style="fill: rgb(223, 171, 119); stroke: rgb(223, 171, 119);"/>
      <ellipse style="fill: rgb(223, 171, 119); stroke: rgb(223, 171, 119);" cx="100.5" cy="127.066" rx="9.5" ry="14.861"/>
      <ellipse style="fill: rgb(223, 171, 119); stroke: rgb(223, 171, 119);" cx="100.583" cy="219.077" rx="9.5" ry="14.861"/>
    </g>
  </g>
</svg>